# xmcd CD database file
#
# Track frame offsets:
#	150
#	15160
#	41108
#	67001
#	80104
#	101241
#	114216
#	143945
#	163000
#	183947
#	193046
#	202453
#
# Disc length: 3032 seconds
#
# Revision: 0
# Processed by: cddbd v1.5.2PL0 Copyright (c) Steve Scherf et al.
# Submitted via: CDex 1.51
#
DISCID=ae0bd60c
DTITLE=Wawau Adler - Here´s To Django
DYEAR=2010
DGENRE=Jazz
TTITLE0=Daphne
TTITLE1=Dream Of  You
TTITLE2=Samouis Sur Seine
TTITLE3=Afternoon In Paris
TTITLE4=Moonlight
TTITLE5=Swing De Wawau
TTITLE6=Anouman
TTITLE7=Swing 48
TTITLE8=Bolero
TTITLE9=Sheik Of Arabia
TTITLE10=Miri Gieli
TTITLE11=Impressions
EXTD=YEAR: 2010
EXTT0=
EXTT1=
EXTT2=
EXTT3=
EXTT4=
EXTT5=
EXTT6=
EXTT7=
EXTT8=
EXTT9=
EXTT10=
EXTT11=
PLAYORDER=
